<?xml version="1.0" encoding="UTF-8"?><svg id="Ebene_1" xmlns="http://www.w3.org/2000/svg" viewBox="0 0 50 50"><defs><style>.cls-1{fill:#252e60;}</style></defs><path class="cls-1" d="m45,23.67188h-9.24304c-.58783-3.67999-3.07324-6.84399-6.50629-8.2995,1.25421-1.14496,2.04718-2.78729,2.04718-4.61554,0-3.4502-2.80664-6.25684-6.25635-6.25684-3.4502,0-6.25732,2.80664-6.25732,6.25684,0,1.82239.7879,3.45996,2.03534,4.60449-3.44458,1.4505-5.94122,4.62262-6.53015,8.31055H5c-.27637,0-.5.22363-.5.5v20.82812c0,.27637.22363.5.5.5h40c.27637,0,.5-.22363.5-.5v-20.82812c0-.27637-.22363-.5-.5-.5Zm-25.21582-12.91504c0-2.89844,2.3584-5.25684,5.25732-5.25684,2.89795,0,5.25635,2.3584,5.25635,5.25684s-2.3584,5.25684-5.25635,5.25684c-2.89893,0-5.25732-2.3584-5.25732-5.25684Zm1.86182,5.32764c.02502-.00909.04279-.0274.06537-.03992.96576.61035,2.10565.96912,3.33014.96912,1.21558,0,2.34753-.35406,3.30878-.95642.01385.00647.02368.01801.03839.02332,3.31549,1.19965,5.74402,4.1463,6.35236,7.59131H15.30438c.60815-3.44,3.03235-6.38507,6.34161-7.5874Zm22.854,8.5874v4.20703H5.5v-4.20703h39ZM5.5,44.5v-14.62109h39v14.62109H5.5Z"/><path class="cls-1" d="m25.58984,36.47168h-.00049l-1.19678.04395c-.66357,0-1.20361-.54004-1.20361-1.2041s.54004-1.2041,1.20361-1.2041h2.2832c.27637,0,.5-.22363.5-.5s-.22363-.5-.5-.5h-1.22559v-1.10742c0-.27637-.22363-.5-.5-.5s-.5.22363-.5.5v1.10742h-.05762c-1.21484,0-2.20361.98828-2.20361,2.2041,0,1.21484.98828,2.2041,2.22119,2.2041h.00049l1.19678-.04395c.66406,0,1.2041.54004,1.2041,1.2041s-.54004,1.2041-1.2041,1.2041h-2.78662c-.27637,0-.5.22363-.5.5s.22363.5.5.5h1.62939v1.12012c0,.27637.22363.5.5.5s.5-.22363.5-.5v-1.12012h.15723c1.21582,0,2.2041-.98828,2.2041-2.2041,0-1.21484-.98828-2.2041-2.22168-2.2041Z"/></svg>