<?xml version="1.0" encoding="UTF-8"?><svg id="Ebene_1" xmlns="http://www.w3.org/2000/svg" viewBox="0 0 50 50"><defs><style>.cls-1{fill:#252e60;}</style></defs><path class="cls-1" d="m24.96875,20.55615c.15283,0,.29688-.06982.3916-.18896,1.29883-1.63574,5.53711-7.18701,5.53711-9.93896-.00391-3.26465-2.66309-5.92383-5.92822-5.92822h-.00098c-3.26465.00439-5.92383,2.66357-5.92822,5.92871,0,2.75684,4.23828,8.3042,5.53711,9.93848.09521.11963.23926.18896.3916.18896Zm0-15.05615c2.71387.00391,4.9248,2.21484,4.92871,4.92871,0,1.8291-2.57129,5.7793-4.92871,8.81787-2.35742-3.03613-4.92871-6.98486-4.92871-8.81738.00342-2.71436,2.21436-4.92529,4.92871-4.9292Z"/><path class="cls-1" d="m27.78516,10.38477c0-1.54395-1.25586-2.7998-2.80029-2.7998-1.54395,0-2.7998,1.25586-2.7998,2.7998s1.25586,2.80029,2.7998,2.80029c1.54443,0,2.80029-1.25635,2.80029-2.80029Zm-4.6001,0c0-.99219.80762-1.7998,1.7998-1.7998.99268,0,1.80029.80762,1.80029,1.7998,0,.99268-.80762,1.80029-1.80029,1.80029-.99219,0-1.7998-.80762-1.7998-1.80029Z"/><path class="cls-1" d="m45.43164,44.74707l-13-22.18945c-.08984-.15283-.25391-.24707-.43164-.24707h-14c-.17773,0-.3418.09424-.43164.24707l-13,22.18945c-.09033.15527-.09131.3457-.00195.50195.08887.15527.25439.25098.43359.25098h40c.17969,0,.34473-.0957.43359-.25098.08887-.15625.08887-.34668-.00195-.50195Zm-19.92676-.24707v-3.26758c0-.27637-.22363-.5-.5-.5s-.5.22363-.5.5v3.26758H5.87256l12.41406-21.18945h6.21826v1.09033c0,.27637.22363.5.5.5s.5-.22363.5-.5v-1.09033h6.20898l12.41406,21.18945h-18.62305Z"/><path class="cls-1" d="m25.00488,35.16602c-.27637,0-.5.22363-.5.5v3.06641c0,.27637.22363.5.5.5s.5-.22363.5-.5v-3.06641c0-.27637-.22363-.5-.5-.5Z"/><path class="cls-1" d="m25.00488,30.4668c-.27637,0-.5.22363-.5.5v2.19922c0,.27637.22363.5.5.5s.5-.22363.5-.5v-2.19922c0-.27637-.22363-.5-.5-.5Z"/><path class="cls-1" d="m25.00488,26.40039c-.27637,0-.5.22363-.5.5v1.56641c0,.27637.22363.5.5.5s.5-.22363.5-.5v-1.56641c0-.27637-.22363-.5-.5-.5Z"/></svg>