<svg width="1242" height="1810" xmlns="http://www.w3.org/2000/svg" xmlns:xlink="http://www.w3.org/1999/xlink" xml:space="preserve" overflow="hidden"><defs><clipPath id="clip0"><rect x="800" y="505" width="1242" height="1810"/></clipPath></defs><g clip-path="url(#clip0)" transform="translate(-800 -505)"><rect x="841.5" y="1004.5" width="280" height="1017" stroke="#FFFFFF" stroke-width="1.14583" stroke-linejoin="round" stroke-miterlimit="10" fill="#1E2A63"/><rect x="1304.5" y="1008.5" width="279" height="1018" stroke="#FFFFFF" stroke-width="1.14583" stroke-linejoin="round" stroke-miterlimit="10" fill="#1E2A63"/><rect x="1771.5" y="1003.5" width="269" height="1023" stroke="#FFFFFF" stroke-width="1.14583" stroke-linejoin="round" stroke-miterlimit="10" fill="#1E2A63"/><rect x="846" y="1005" width="1192" height="247" fill="#1E2A63"/><text fill="#FFFFFF" font-family="Arial,Arial_MSFontService,sans-serif" font-weight="400" font-size="55" transform="matrix(1 0 0 1 1130.66 1149)">LEADERSHIP</text><text fill="#FFFFFF" font-family="Arial,Arial_MSFontService,sans-serif" font-weight="400" font-size="55" transform="matrix(1 0 0 1 1493.89 1149)">CULTUR</text><text fill="#FFFFFF" font-family="Arial,Arial_MSFontService,sans-serif" font-weight="400" font-size="55" transform="matrix(1 0 0 1 1716.18 1149)">E</text><rect x="1313" y="1397" width="262" height="291" fill="#1E2A63"/><text fill="#FFFFFF" font-family="Arial,Arial_MSFontService,sans-serif" font-weight="400" font-size="46" transform="matrix(1 0 0 1 1391.2 1450)">Safe, </text><text fill="#FFFFFF" font-family="Arial,Arial_MSFontService,sans-serif" font-weight="400" font-size="46" transform="matrix(1 0 0 1 1345.37 1505)">Motivated </text><text fill="#FFFFFF" font-family="Arial,Arial_MSFontService,sans-serif" font-weight="400" font-size="46" transform="matrix(1 0 0 1 1406.37 1560)">and </text><text fill="#FFFFFF" font-family="Arial,Arial_MSFontService,sans-serif" font-weight="400" font-size="46" transform="matrix(1 0 0 1 1354.24 1615)">Qualified </text><text fill="#FFFFFF" font-family="Arial,Arial_MSFontService,sans-serif" font-weight="400" font-size="46" transform="matrix(1 0 0 1 1373.44 1670)">People</text><rect x="1780" y="1400" width="242" height="288" fill="#1E2A63"/><text fill="#FFFFFF" font-family="Arial,Arial_MSFontService,sans-serif" font-weight="400" font-size="46" transform="matrix(1 0 0 1 1823.67 1507)">Failure</text><text fill="#FFFFFF" font-family="Arial,Arial_MSFontService,sans-serif" font-weight="400" font-size="46" transform="matrix(1 0 0 1 1963.47 1507)">-</text><text fill="#FFFFFF" font-family="Arial,Arial_MSFontService,sans-serif" font-weight="400" font-size="46" transform="matrix(1 0 0 1 1854.34 1562)">Free </text><text fill="#FFFFFF" font-family="Arial,Arial_MSFontService,sans-serif" font-weight="400" font-size="46" transform="matrix(1 0 0 1 1822.83 1617)">Product</text><rect x="839.5" y="2037.5" width="1202" height="120" stroke="#FFFFFF" stroke-width="1.14583" stroke-linejoin="round" stroke-miterlimit="10" fill="#A6A6A6"/><text fill="#FFFFFF" font-family="Arial,Arial_MSFontService,sans-serif" font-weight="400" font-size="46" transform="matrix(1 0 0 1 1185.04 2115)">Continuous Improvement</text><rect x="839.5" y="2171.5" width="289" height="119" stroke="#FFFFFF" stroke-width="1.14583" stroke-linejoin="round" stroke-miterlimit="10" fill="#A6A6A6"/><text fill="#FFFFFF" font-family="Arial,Arial_MSFontService,sans-serif" font-weight="400" font-size="46" transform="matrix(1 0 0 1 934.966 2248)">TPM</text><rect x="1143.5" y="2171.5" width="289" height="119" stroke="#FFFFFF" stroke-width="1.14583" stroke-linejoin="round" stroke-miterlimit="10" fill="#A6A6A6"/><rect x="1447.5" y="2171.5" width="289" height="119" stroke="#FFFFFF" stroke-width="1.14583" stroke-linejoin="round" stroke-miterlimit="10" fill="#A6A6A6"/><text fill="#FFFFFF" font-family="Arial,Arial_MSFontService,sans-serif" font-weight="400" font-size="46" transform="matrix(1 0 0 1 1509.31 2221)">Process </text><text fill="#FFFFFF" font-family="Arial,Arial_MSFontService,sans-serif" font-weight="400" font-size="46" transform="matrix(1 0 0 1 1520.77 2276)">Design</text><rect x="1751.5" y="2171.5" width="290" height="119" stroke="#FFFFFF" stroke-width="1.14583" stroke-linejoin="round" stroke-miterlimit="10" fill="#A6A6A6"/><text fill="#FFFFFF" font-family="Arial,Arial_MSFontService,sans-serif" font-weight="400" font-size="41" transform="matrix(1 0 0 1 1807.8 2221)">Technical </text><text fill="#FFFFFF" font-family="Arial,Arial_MSFontService,sans-serif" font-weight="400" font-size="41" transform="matrix(1 0 0 1 1802.08 2271)">Standards</text><path d="M1075.5 800.5 1441.52 505.5 1809.5 800.5Z" stroke="#FFFFFF" stroke-width="1.14583" stroke-linejoin="round" stroke-miterlimit="10" fill="#A6A6A6" fill-rule="evenodd"/><text fill="#FFFFFF" font-family="Arial,Arial_MSFontService,sans-serif" font-weight="700" font-size="46" transform="matrix(1 0 0 1 1370.77 631)">Vision</text><text fill="#FFFFFF" font-family="Arial,Arial_MSFontService,sans-serif" font-weight="400" font-size="46" transform="matrix(1 0 0 1 1256.46 686)">Highest Customer </text><text fill="#FFFFFF" font-family="Arial,Arial_MSFontService,sans-serif" font-weight="400" font-size="46" transform="matrix(1 0 0 1 1220.1 741)">Orientation in Quality, </text><text fill="#FFFFFF" font-family="Arial,Arial_MSFontService,sans-serif" font-weight="400" font-size="46" transform="matrix(1 0 0 1 1222.66 796)">Lead Time and Costs</text><path d="M847.5 988.5 1065.74 809.5 1817.26 809.5 2035.5 988.5Z" stroke="#FFFFFF" stroke-width="1.14583" stroke-linejoin="round" stroke-miterlimit="10" fill="#D9D9D9" fill-rule="evenodd"/><text font-family="Arial,Arial_MSFontService,sans-serif" font-weight="700" font-size="46" transform="matrix(1 0 0 1 1349.23 876)">Strategy</text><text font-family="Arial,Arial_MSFontService,sans-serif" font-weight="400" font-size="46" transform="matrix(1 0 0 1 1093.71 931)">Operational Excellence through all </text><text font-family="Arial,Arial_MSFontService,sans-serif" font-weight="400" font-size="46" transform="matrix(1 0 0 1 1184.8 986)">processes to avoid waste </text><text fill="#FFFFFF" font-family="Arial,Arial_MSFontService,sans-serif" font-weight="400" font-size="46" transform="matrix(1 0 0 1 1232.26 2222)">Visual</text><text fill="#FFFFFF" font-family="Arial,Arial_MSFontService,sans-serif" font-weight="400" font-size="46" transform="matrix(1 0 0 1 1161.5 2277)">Management </text><text fill="#FFFFFF" font-family="Arial,Arial_MSFontService,sans-serif" font-weight="400" font-size="46" transform="matrix(1 0 0 1 930.778 1532)">Lean </text><text fill="#FFFFFF" font-family="Arial,Arial_MSFontService,sans-serif" font-weight="400" font-size="46" transform="matrix(1 0 0 1 874.632 1587)">Processes</text></g></svg>