<svg id="Ebene_1" data-name="Ebene 1" xmlns="http://www.w3.org/2000/svg" viewBox="0 0 50 50"><defs><style>.cls-1{fill:#1e2a63;}</style></defs><path class="cls-1" d="M38.93,19.88a5.86,5.86,0,1,0-8.76-7.71,7.15,7.15,0,0,0-10.54,0A5.87,5.87,0,0,0,9.07,15.66a5.83,5.83,0,0,0,1.81,4.22,10.25,10.25,0,0,0-6.46,9.49v4.38a.5.5,0,0,0,.5.5h7.39v5.52a.5.5,0,0,0,.5.5H36.93a.5.5,0,0,0,.5-.5V34.25H44.9a.51.51,0,0,0,.5-.5V29.37A10.24,10.24,0,0,0,38.93,19.88Zm-8-7.06a4.86,4.86,0,1,1,.82,6.56l-.07,0A7,7,0,0,0,30.8,13,.8.8,0,0,0,30.93,12.82Zm-6-2A6.19,6.19,0,1,1,18.71,17,6.19,6.19,0,0,1,24.89,10.84ZM10.07,15.66a4.86,4.86,0,0,1,8.81-2.84.6.6,0,0,0,.12.11A7.12,7.12,0,0,0,17.71,17a7.27,7.27,0,0,0,.39,2.34l0,0a4.86,4.86,0,0,1-8-3.72ZM5.42,29.37a9.22,9.22,0,0,1,6.06-8.65.55.55,0,0,0,.22-.18,5.8,5.8,0,0,0,6.8-.25,7.34,7.34,0,0,0,1.62,2.09,12.6,12.6,0,0,0-7.78,10.87H5.42Zm31,9.9H13.31V34a11.62,11.62,0,0,1,7.61-10.88.6.6,0,0,0,.11-.06,7.1,7.1,0,0,0,7.7,0l.07.05A11.59,11.59,0,0,1,36.43,34Zm8-6h-7a12.6,12.6,0,0,0-7.75-10.86,7.1,7.1,0,0,0,1.64-2.12,5.84,5.84,0,0,0,3.59,1.25,5.78,5.78,0,0,0,3.23-1,.55.55,0,0,0,.22.18,9.23,9.23,0,0,1,6.07,8.65Z"/></svg>