<svg width="1262" height="1858" xmlns="http://www.w3.org/2000/svg" xmlns:xlink="http://www.w3.org/1999/xlink" xml:space="preserve" overflow="hidden"><defs><filter id="fx0" x="-10%" y="-10%" width="120%" height="120%" filterUnits="userSpaceOnUse" primitiveUnits="userSpaceOnUse"><feComponentTransfer color-interpolation-filters="sRGB"><feFuncR type="discrete" tableValues="0 0"/><feFuncG type="discrete" tableValues="0 0"/><feFuncB type="discrete" tableValues="0 0"/><feFuncA type="linear" slope="0.431373" intercept="0"/></feComponentTransfer><feGaussianBlur stdDeviation="1.26638 1.26638"/></filter><filter id="fx1" x="-10%" y="-10%" width="120%" height="120%" filterUnits="userSpaceOnUse" primitiveUnits="userSpaceOnUse"><feComponentTransfer color-interpolation-filters="sRGB"><feFuncR type="discrete" tableValues="0 0"/><feFuncG type="discrete" tableValues="0 0"/><feFuncB type="discrete" tableValues="0 0"/><feFuncA type="linear" slope="0.431373" intercept="0"/></feComponentTransfer><feGaussianBlur stdDeviation="1.26638 1.26638"/></filter><clipPath id="clip2"><rect x="244" y="322" width="1262" height="1858"/></clipPath><clipPath id="clip3"><rect x="31" y="27" width="617" height="45"/></clipPath><clipPath id="clip4"><rect x="0" y="0" width="712" height="112"/></clipPath><clipPath id="clip5"><rect x="31" y="27" width="437" height="45"/></clipPath><clipPath id="clip6"><rect x="0" y="0" width="499" height="112"/></clipPath></defs><g clip-path="url(#clip2)" transform="translate(-244 -322)"><rect x="247.5" y="833.5" width="293" height="1044" stroke="#FFFFFF" stroke-width="1.14583" stroke-linejoin="round" stroke-miterlimit="10" fill="#1E2A63"/><rect x="247" y="1240" width="293" height="296" fill="#1E2A63"/><text fill="#FFFFFF" font-family="Arial,Arial_MSFontService,sans-serif" font-weight="400" font-size="48" transform="matrix(1 0 0 1 339.923 1377)">Lean </text><text fill="#FFFFFF" font-family="Arial,Arial_MSFontService,sans-serif" font-weight="400" font-size="48" transform="matrix(1 0 0 1 281.188 1435)">Processes</text><rect x="732.5" y="838.5" width="293" height="1044" stroke="#FFFFFF" stroke-width="1.14583" stroke-linejoin="round" stroke-miterlimit="10" fill="#1E2A63"/><rect x="1222.5" y="833.5" width="282" height="1049" stroke="#FFFFFF" stroke-width="1.14583" stroke-linejoin="round" stroke-miterlimit="10" fill="#1E2A63"/><rect x="252" y="835" width="1250" height="254" fill="#1E2A63"/><rect x="742" y="1237" width="275" height="299" fill="#1E2A63"/><text fill="#FFFFFF" font-family="Arial,Arial_MSFontService,sans-serif" font-weight="400" font-size="48" transform="matrix(1 0 0 1 823.053 1289)">Safe, </text><text fill="#FFFFFF" font-family="Arial,Arial_MSFontService,sans-serif" font-weight="400" font-size="48" transform="matrix(1 0 0 1 774.653 1347)">Motivated </text><text fill="#FFFFFF" font-family="Arial,Arial_MSFontService,sans-serif" font-weight="400" font-size="48" transform="matrix(1 0 0 1 838.819 1404)">and </text><text fill="#FFFFFF" font-family="Arial,Arial_MSFontService,sans-serif" font-weight="400" font-size="48" transform="matrix(1 0 0 1 783.819 1462)">Qualified </text><text fill="#FFFFFF" font-family="Arial,Arial_MSFontService,sans-serif" font-weight="400" font-size="48" transform="matrix(1 0 0 1 803.871 1520)">People</text><rect x="1232" y="1240" width="253" height="296" fill="#1E2A63"/><text fill="#FFFFFF" font-family="Arial,Arial_MSFontService,sans-serif" font-weight="400" font-size="48" transform="matrix(1 0 0 1 1276.56 1348)">Failure</text><text fill="#FFFFFF" font-family="Arial,Arial_MSFontService,sans-serif" font-weight="400" font-size="48" transform="matrix(1 0 0 1 1424.37 1348)">-</text><text fill="#FFFFFF" font-family="Arial,Arial_MSFontService,sans-serif" font-weight="400" font-size="48" transform="matrix(1 0 0 1 1308.91 1406)">Free </text><text fill="#FFFFFF" font-family="Arial,Arial_MSFontService,sans-serif" font-weight="400" font-size="48" transform="matrix(1 0 0 1 1275.41 1463)">Product</text><g clip-path="url(#clip3)" filter="url(#fx0)" transform="translate(283 896)"><g clip-path="url(#clip4)"><path d="M3.51562 0 3.51562-34.3594 8.0625-34.3594 8.0625-4.05469 24.9844-4.05469 24.9844 0ZM64.5948 0 64.5948-34.3594 89.4385-34.3594 89.4385-30.3047 69.1417-30.3047 69.1417-19.7812 88.1495-19.7812 88.1495-15.75 69.1417-15.75 69.1417-4.05469 90.2354-4.05469 90.2354 0ZM126.682 0 139.877-34.3594 144.776-34.3594 158.838 0 153.658 0 149.651-10.4062 135.283-10.4062 131.51 0ZM136.596-14.1094 148.244-14.1094 144.658-23.625C143.565-26.5156 142.752-28.8906 142.221-30.75 141.783-28.5469 141.166-26.3594 140.369-24.1875ZM196.409 0 196.409-34.3594 208.245-34.3594C210.917-34.3594 212.956-34.1953 214.362-33.8672 216.331-33.4141 218.011-32.5937 219.402-31.4062 221.214-29.875 222.57-27.918 223.468-25.5352 224.366-23.1523 224.816-20.4297 224.816-17.3672 224.816-14.7578 224.511-12.4453 223.902-10.4297 223.292-8.41406 222.511-6.74609 221.558-5.42578 220.605-4.10547 219.562-3.06641 218.429-2.30859 217.296-1.55078 215.929-0.976562 214.327-0.585937 212.726-0.195312 210.886 0 208.808 0ZM200.956-4.05469 208.292-4.05469C210.558-4.05469 212.335-4.26562 213.624-4.6875 214.913-5.10937 215.941-5.70312 216.706-6.46875 217.784-7.54687 218.624-8.99609 219.226-10.8164 219.827-12.6367 220.128-14.8437 220.128-17.4375 220.128-21.0312 219.538-23.793 218.359-25.7227 217.179-27.6523 215.745-28.9453 214.058-29.6016 212.839-30.0703 210.878-30.3047 208.175-30.3047L200.956-30.3047ZM265.322 0 265.322-34.3594 290.166-34.3594 290.166-30.3047 269.869-30.3047 269.869-19.7812 288.877-19.7812 288.877-15.75 269.869-15.75 269.869-4.05469 290.962-4.05469 290.962 0ZM331.253 0 331.253-34.3594 346.487-34.3594C349.549-34.3594 351.878-34.0508 353.471-33.4336 355.065-32.8164 356.339-31.7266 357.292-30.1641 358.245-28.6016 358.721-26.875 358.721-24.9844 358.721-22.5469 357.932-20.4922 356.354-18.8203 354.776-17.1484 352.339-16.0859 349.042-15.6328 350.245-15.0547 351.159-14.4844 351.784-13.9219 353.112-12.7031 354.37-11.1797 355.557-9.35156L361.534 0 355.815 0 351.268-7.14844C349.94-9.21094 348.846-10.7891 347.987-11.8828 347.128-12.9766 346.358-13.7422 345.678-14.1797 344.999-14.6172 344.307-14.9219 343.604-15.0937 343.089-15.2031 342.245-15.2578 341.073-15.2578L335.799-15.2578 335.799 0ZM335.799-19.1953 345.573-19.1953C347.651-19.1953 349.276-19.4102 350.448-19.8398 351.62-20.2695 352.51-20.957 353.12-21.9023 353.729-22.8477 354.034-23.875 354.034-24.9844 354.034-26.6094 353.444-27.9453 352.264-28.9922 351.085-30.0391 349.221-30.5625 346.674-30.5625L335.799-30.5625ZM398.454-11.0391 402.743-11.4141C402.946-9.69531 403.419-8.28516 404.161-7.18359 404.903-6.08203 406.056-5.19141 407.618-4.51172 409.181-3.83203 410.938-3.49219 412.892-3.49219 414.626-3.49219 416.157-3.75 417.485-4.26562 418.813-4.78125 419.802-5.48828 420.45-6.38672 421.099-7.28516 421.423-8.26562 421.423-9.32812 421.423-10.4062 421.11-11.3477 420.485-12.1523 419.86-12.957 418.829-13.6328 417.392-14.1797 416.47-14.5391 414.431-15.0977 411.274-15.8555 408.118-16.6133 405.907-17.3281 404.642-18 403.001-18.8594 401.778-19.9258 400.974-21.1992 400.169-22.4727 399.767-23.8984 399.767-25.4766 399.767-27.2109 400.259-28.832 401.243-30.3398 402.228-31.8477 403.665-32.9922 405.556-33.7734 407.446-34.5547 409.548-34.9453 411.86-34.9453 414.407-34.9453 416.653-34.5352 418.599-33.7148 420.544-32.8945 422.04-31.6875 423.087-30.0937 424.134-28.5 424.696-26.6953 424.774-24.6797L420.415-24.3516C420.181-26.5234 419.388-28.1641 418.036-29.2734 416.685-30.3828 414.688-30.9375 412.048-30.9375 409.298-30.9375 407.294-30.4336 406.036-29.4258 404.778-28.418 404.149-27.2031 404.149-25.7812 404.149-24.5469 404.595-23.5312 405.485-22.7344 406.36-21.9375 408.646-21.1211 412.341-20.2852 416.036-19.4492 418.571-18.7187 419.946-18.0937 421.946-17.1719 423.423-16.0039 424.376-14.5898 425.329-13.1758 425.806-11.5469 425.806-9.70312 425.806-7.875 425.282-6.15234 424.235-4.53516 423.188-2.91797 421.685-1.66016 419.724-0.761719 417.763 0.136719 415.556 0.585937 413.103 0.585937 409.993 0.585937 407.388 0.132812 405.286-0.773437 403.185-1.67969 401.536-3.04297 400.341-4.86328 399.146-6.68359 398.517-8.74219 398.454-11.0391ZM466.096 0 466.096-34.3594 470.643-34.3594 470.643-20.25 488.502-20.25 488.502-34.3594 493.049-34.3594 493.049 0 488.502 0 488.502-16.1953 470.643-16.1953 470.643 0ZM535.547 0 535.547-34.3594 540.094-34.3594 540.094 0ZM581.822 0 581.822-34.3594 594.783-34.3594C597.064-34.3594 598.806-34.25 600.009-34.0312 601.697-33.75 603.111-33.2148 604.251-32.4258 605.392-31.6367 606.31-30.5312 607.005-29.1094 607.701-27.6875 608.048-26.125 608.048-24.4219 608.048-21.5 607.119-19.0273 605.259-17.0039 603.4-14.9805 600.041-13.9687 595.181-13.9687L586.369-13.9687 586.369 0ZM586.369-18.0234 595.251-18.0234C598.189-18.0234 600.275-18.5703 601.509-19.6641 602.744-20.7578 603.361-22.2969 603.361-24.2812 603.361-25.7187 602.998-26.9492 602.271-27.9727 601.544-28.9961 600.587-29.6719 599.4-30 598.634-30.2031 597.22-30.3047 595.158-30.3047L586.369-30.3047Z" fill="#FFFFFF" transform="matrix(1 0 0 1 33.649 67)"/></g></g><text fill="#FFFFFF" font-family="Arial,Arial_MSFontService,sans-serif" font-weight="400" font-size="48" transform="matrix(1 0 0 1 313.963 960)">LEADERSHIP</text><g clip-path="url(#clip5)" filter="url(#fx1)" transform="translate(985 896)"><g clip-path="url(#clip6)"><path d="M28.2187-12.0469 32.7656-10.8984C31.8125-7.16406 30.0977-4.31641 27.6211-2.35547 25.1445-0.394531 22.1172 0.585937 18.5391 0.585937 14.8359 0.585937 11.8242-0.167969 9.50391-1.67578 7.18359-3.18359 5.41797-5.36719 4.20703-8.22656 2.99609-11.0859 2.39062-14.1562 2.39062-17.4375 2.39062-21.0156 3.07422-24.1367 4.44141-26.8008 5.80859-29.4648 7.75391-31.4883 10.2773-32.8711 12.8008-34.2539 15.5781-34.9453 18.6094-34.9453 22.0469-34.9453 24.9375-34.0703 27.2812-32.3203 29.625-30.5703 31.2578-28.1094 32.1797-24.9375L27.7031-23.8828C26.9062-26.3828 25.75-28.2031 24.2344-29.3437 22.7187-30.4844 20.8125-31.0547 18.5156-31.0547 15.875-31.0547 13.668-30.4219 11.8945-29.1562 10.1211-27.8906 8.875-26.1914 8.15625-24.0586 7.4375-21.9258 7.07812-19.7266 7.07812-17.4609 7.07812-14.5391 7.50391-11.9883 8.35547-9.80859 9.20703-7.62891 10.5312-6 12.3281-4.92187 14.125-3.84375 16.0703-3.30469 18.1641-3.30469 20.7109-3.30469 22.8672-4.03906 24.6328-5.50781 26.3984-6.97656 27.5937-9.15625 28.2187-12.0469ZM95.0687-34.3594 99.6156-34.3594 99.6156-14.5078C99.6156-11.0547 99.225-8.3125 98.4437-6.28125 97.6625-4.25 96.2523-2.59766 94.2133-1.32422 92.1742-0.0507813 89.4984 0.585937 86.1859 0.585937 82.9672 0.585937 80.3344 0.03125 78.2875-1.07812 76.2406-2.1875 74.7797-3.79297 73.9047-5.89453 73.0297-7.99609 72.5922-10.8672 72.5922-14.5078L72.5922-34.3594 77.1391-34.3594 77.1391-14.5312C77.1391-11.5469 77.4164-9.34766 77.9711-7.93359 78.5258-6.51953 79.4789-5.42969 80.8305-4.66406 82.182-3.89844 83.8344-3.51562 85.7875-3.51562 89.1312-3.51562 91.5141-4.27344 92.9359-5.78906 94.3578-7.30469 95.0687-10.2187 95.0687-14.5312ZM141.153 0 141.153-34.3594 145.7-34.3594 145.7-4.05469 162.622-4.05469 162.622 0ZM210.881 0 210.881-30.3047 199.56-30.3047 199.56-34.3594 226.795-34.3594 226.795-30.3047 215.428-30.3047 215.428 0ZM287.775-34.3594 292.322-34.3594 292.322-14.5078C292.322-11.0547 291.931-8.3125 291.15-6.28125 290.369-4.25 288.959-2.59766 286.919-1.32422 284.88-0.0507813 282.205 0.585937 278.892 0.585937 275.673 0.585937 273.041 0.03125 270.994-1.07812 268.947-2.1875 267.486-3.79297 266.611-5.89453 265.736-7.99609 265.298-10.8672 265.298-14.5078L265.298-34.3594 269.845-34.3594 269.845-14.5312C269.845-11.5469 270.123-9.34766 270.677-7.93359 271.232-6.51953 272.185-5.42969 273.537-4.66406 274.888-3.89844 276.541-3.51562 278.494-3.51562 281.837-3.51562 284.22-4.27344 285.642-5.78906 287.064-7.30469 287.775-10.2187 287.775-14.5312ZM334.117 0 334.117-34.3594 349.352-34.3594C352.414-34.3594 354.742-34.0508 356.336-33.4336 357.93-32.8164 359.203-31.7266 360.156-30.1641 361.109-28.6016 361.586-26.875 361.586-24.9844 361.586-22.5469 360.797-20.4922 359.219-18.8203 357.641-17.1484 355.203-16.0859 351.906-15.6328 353.109-15.0547 354.023-14.4844 354.648-13.9219 355.977-12.7031 357.234-11.1797 358.422-9.35156L364.398 0 358.68 0 354.133-7.14844C352.805-9.21094 351.711-10.7891 350.852-11.8828 349.992-12.9766 349.223-13.7422 348.543-14.1797 347.863-14.6172 347.172-14.9219 346.469-15.0937 345.953-15.2031 345.109-15.2578 343.937-15.2578L338.664-15.2578 338.664 0ZM338.664-19.1953 348.437-19.1953C350.516-19.1953 352.141-19.4102 353.312-19.8398 354.484-20.2695 355.375-20.957 355.984-21.9023 356.594-22.8477 356.898-23.875 356.898-24.9844 356.898-26.6094 356.309-27.9453 355.129-28.9922 353.949-30.0391 352.086-30.5625 349.539-30.5625L338.664-30.5625ZM402.936 0 402.936-34.3594 427.78-34.3594 427.78-30.3047 407.483-30.3047 407.483-19.7812 426.491-19.7812 426.491-15.75 407.483-15.75 407.483-4.05469 428.577-4.05469 428.577 0Z" fill="#FFFFFF" transform="matrix(1 0 0 1 33.6553 67)"/></g></g><text fill="#FFFFFF" font-family="Arial,Arial_MSFontService,sans-serif" font-weight="400" font-size="48" transform="matrix(1 0 0 1 1015.97 960)">CULTURE</text><rect x="244.5" y="1893.5" width="1261" height="123" stroke="#FFFFFF" stroke-width="1.14583" stroke-linejoin="round" stroke-miterlimit="10" fill="#A6A6A6"/><text fill="#FFFFFF" font-family="Arial,Arial_MSFontService,sans-serif" font-weight="400" font-size="48" transform="matrix(1 0 0 1 604.942 1973)">Continuous Improvement</text><rect x="244.5" y="2031.5" width="304" height="122" stroke="#FFFFFF" stroke-width="1.14583" stroke-linejoin="round" stroke-miterlimit="10" fill="#A6A6A6"/><text fill="#FFFFFF" font-family="Arial,Arial_MSFontService,sans-serif" font-weight="400" font-size="48" transform="matrix(1 0 0 1 345.393 2110)">TPM</text><rect x="563.5" y="2031.5" width="304" height="122" stroke="#FFFFFF" stroke-width="1.14583" stroke-linejoin="round" stroke-miterlimit="10" fill="#A6A6A6"/><rect x="882.5" y="2031.5" width="304" height="122" stroke="#FFFFFF" stroke-width="1.14583" stroke-linejoin="round" stroke-miterlimit="10" fill="#A6A6A6"/><text fill="#FFFFFF" font-family="Arial,Arial_MSFontService,sans-serif" font-weight="400" font-size="48" transform="matrix(1 0 0 1 946.884 2081)">Process </text><text fill="#FFFFFF" font-family="Arial,Arial_MSFontService,sans-serif" font-weight="400" font-size="48" transform="matrix(1 0 0 1 958.617 2139)">Design</text><rect x="1201.5" y="2031.5" width="304" height="122" stroke="#FFFFFF" stroke-width="1.14583" stroke-linejoin="round" stroke-miterlimit="10" fill="#A6A6A6"/><text fill="#FFFFFF" font-family="Arial,Arial_MSFontService,sans-serif" font-weight="400" font-size="48" transform="matrix(1 0 0 1 1249.48 2081)">Technical </text><text fill="#FFFFFF" font-family="Arial,Arial_MSFontService,sans-serif" font-weight="400" font-size="48" transform="matrix(1 0 0 1 1242.9 2139)">Standards</text><path d="M492.5 624.5 876.469 322.5 1262.5 624.5Z" stroke="#FFFFFF" stroke-width="1.14583" stroke-linejoin="round" stroke-miterlimit="10" fill="#A6A6A6" fill-rule="evenodd"/><text fill="#FFFFFF" font-family="Arial,Arial_MSFontService,sans-serif" font-weight="700" font-size="48" transform="matrix(1 0 0 1 823.33 445)">Vision</text><text fill="#FFFFFF" font-family="Arial,Arial_MSFontService,sans-serif" font-weight="400" font-size="48" transform="matrix(1 0 0 1 702.146 503)">Highest Customer </text><text fill="#FFFFFF" font-family="Arial,Arial_MSFontService,sans-serif" font-weight="400" font-size="48" transform="matrix(1 0 0 1 663.486 560)">Orientation in Quality, </text><text fill="#FFFFFF" font-family="Arial,Arial_MSFontService,sans-serif" font-weight="400" font-size="48" transform="matrix(1 0 0 1 666.052 618)">Lead Time and Costs</text><path d="M253.5 818.5 477.837 634.5 1275.16 634.5 1499.5 818.5Z" stroke="#FFFFFF" stroke-width="1.14583" stroke-linejoin="round" stroke-miterlimit="10" fill="#D9D9D9" fill-rule="evenodd"/><text font-family="Arial,Arial_MSFontService,sans-serif" font-weight="700" font-size="48" transform="matrix(1 0 0 1 779.36 703)">Strategy</text><text font-family="Arial,Arial_MSFontService,sans-serif" font-weight="400" font-size="48" transform="matrix(1 0 0 1 508.095 761)">Operational Excellence through all </text><text font-family="Arial,Arial_MSFontService,sans-serif" font-weight="400" font-size="48" transform="matrix(1 0 0 1 605.193 818)">processes to avoid waste </text></g></svg>