<?xml version="1.0" encoding="utf-8"?>
<!-- Generator: Adobe Illustrator 25.2.0, SVG Export Plug-In . SVG Version: 6.00 Build 0)  -->
<svg version="1.1" id="Ebene_1" xmlns="http://www.w3.org/2000/svg" xmlns:xlink="http://www.w3.org/1999/xlink" x="0px" y="0px"
	 viewBox="0 0 50 50" style="enable-background:new 0 0 50 50;" xml:space="preserve">
<style type="text/css">
	.st0{fill:#1E2A63;}
</style>
<path class="st0" d="M24.2,28.1C24.2,28.1,24.2,28.1,24.2,28.1c-0.2,0-0.3-0.1-0.4-0.2l-2.8-4c-0.2-0.2-0.1-0.5,0.1-0.7
	c0.2-0.2,0.5-0.1,0.7,0.1l2.4,3.4l4.7-5.8c0.2-0.2,0.5-0.2,0.7-0.1c0.2,0.2,0.2,0.5,0.1,0.7l-5.2,6.3C24.5,28,24.3,28.1,24.2,28.1z"
	/>
<g>
	<path class="st0" d="M10.1,27.8l3.5,0.7c0.2,0.6,0.5,1.3,0.8,1.9c0.4,0,0.7-0.1,1-0.1c-0.4-0.8-0.8-1.6-1-2.4
		c0-0.2-0.2-0.3-0.3-0.3l-3.4-0.7l-0.1-2.1l3.2-1.2c0.2,0,0.3-0.2,0.3-0.3c0.2-1.4,0.6-2.7,1.3-4c0.1-0.1,0.1-0.3,0-0.5l-1.9-3
		l1.4-1.6l3.1,1.4c0.1,0,0.1,0,0.2,0c0.1,0,0.2,0,0.3-0.1c1.1-0.9,2.4-1.5,3.7-1.9c0.2-0.1,0.3-0.2,0.3-0.4l0.7-3.4l2.1-0.1l1.2,3.2
		c0.1,0.2,0.2,0.3,0.4,0.3c1.4,0.2,2.8,0.6,4,1.3c0.1,0,0.2,0.1,0.3,0.1c0.1,0,0.2,0,0.2-0.1l2.9-1.9l1.6,1.4l-1.4,3.1
		c-0.1,0.2-0.1,0.3,0,0.5c0.9,1.1,1.5,2.4,1.9,3.8c0.1,0.2,0.2,0.3,0.4,0.3l3.4,0.7l0.1,2.1l-3.2,1.2c-0.2,0.1-0.3,0.2-0.3,0.4
		c-0.2,1.4-0.6,2.7-1.3,4c-0.1,0.1-0.1,0.3,0,0.5l0.4,0.6l0.9-0.5l-0.3-0.4c0.6-1.1,1-2.3,1.2-3.7l3.3-1.2c0.2-0.1,0.3-0.3,0.3-0.5
		L41,22c0-0.2-0.2-0.4-0.4-0.4l-3.5-0.7c-0.4-1.2-1-2.4-1.8-3.6l1.5-3.1c0.1-0.2,0-0.4-0.1-0.6l-2.2-1.9c-0.1-0.1-0.2-0.1-0.3-0.1
		c-0.1,0-0.2,0-0.3,0.1l-3,1.9c-1.1-0.6-2.4-1-3.8-1.2l-1.2-3.3c-0.1-0.2-0.2-0.3-0.5-0.3c0,0-2.9,0.2-2.9,0.2
		c-0.2,0-0.4,0.2-0.4,0.4l-0.7,3.5c-1.2,0.4-2.4,1-3.5,1.8l-3.2-1.5c-0.1,0-0.1,0-0.2,0c-0.1,0-0.3,0.1-0.4,0.2l-1.9,2.2
		c-0.1,0.2-0.1,0.4,0,0.6l1.9,3c-0.6,1.1-1,2.3-1.2,3.7L9.8,24c-0.2,0.1-0.3,0.3-0.3,0.5l0.2,2.9C9.7,27.6,9.8,27.7,10.1,27.8z"/>
</g>
<path class="st0" d="M9.8,45.5C9.8,45.5,9.8,45.5,9.8,45.5c-0.2,0-0.3-0.1-0.4-0.2L4.5,38c-0.1-0.2-0.1-0.5,0.1-0.6l6.3-5.8
	c3.3-2.2,7-1.1,7.2-1c1.7,0.4,4.9,0.5,4.9,0.5h5.4c1.6,0,2.9,0.9,3.3,2.2l8.9-4.6c1.6-0.9,3.6-0.4,4.3,1c0.8,1.5,0.1,3.4-1.5,4.3
	l-14.8,7.9c0,0-0.1,0-0.1,0l-0.8,0.2c0,0-0.1,0-0.1,0l-13.7,0.4c-0.3,0.1-1.8,0.7-3.6,2.8C10.1,45.4,9.9,45.5,9.8,45.5z M5.5,37.8
	l4.3,6.4c2-2.1,3.6-2.6,3.7-2.6c0,0,0.1,0,0.1,0l13.8-0.4l0.7-0.2l14.8-7.9c1.1-0.6,1.6-1.9,1.1-2.9c-0.5-1-1.8-1.2-3-0.6l-9.3,4.7
	c-0.1,1.6-1.6,2.9-3.4,2.9h-7.5v-1h7.5c1.3,0,2.4-0.9,2.4-2.1c0-1.1-1.1-2.1-2.4-2.1h-5.4c-0.2,0-3.4-0.1-5.2-0.6
	c-0.1,0-3.5-1-6.3,0.9L5.5,37.8z"/>
<g>
	<path class="st0" d="M19.8,31c0.7,0.1,1.5,0.1,2.1,0.2c-2.5-1.3-4.2-3.8-4.2-6.8c0-4.2,3.4-7.7,7.7-7.7s7.7,3.4,7.7,7.7
		c0,3-1.8,5.7-4.3,6.9c0.5,0.1,0.9,0.2,1.3,0.4c2.4-1.5,4-4.2,4-7.3c0-4.8-3.9-8.7-8.7-8.7c-4.8,0-8.7,3.9-8.7,8.7
		C16.7,27.1,17.9,29.4,19.8,31z"/>
</g>
</svg>
