<?xml version="1.0" encoding="UTF-8"?>
<svg xmlns="http://www.w3.org/2000/svg" viewBox="0 0 50 50"><path fill="#252e60" d="M42.019 13.33l-.004-.178c-.012-.653-.025-1.288-.033-1.912a.5.5 0 0 0-.478-.493c-6.558-.276-11.697-2.223-16.176-6.124a.5.5 0 0 0-.658 0c-4.478 3.901-9.617 5.848-16.173 6.124a.5.5 0 0 0-.479.493c-.01.68-.022 1.375-.036 2.091-.232 12.112-.494 25.84 16.846 32.139a.49.49 0 0 0 .342 0c17.34-6.3 17.079-20.028 16.849-32.14zm-17.02 31.138C8.503 38.384 8.757 25.086 8.982 13.35l.03-1.628c6.412-.35 11.515-2.286 15.987-6.064 4.419 3.727 9.658 5.714 15.99 6.064l.027 1.448.003.178c.223 11.737.477 25.035-16.02 31.119z" style="fill: #1e2a63;"/><path fill="#252e60" d="M25 13.82c-6.165 0-11.18 5.015-11.18 11.18S18.835 36.18 25 36.18 36.18 31.166 36.18 25 31.166 13.82 25 13.82zm0 21.36c-5.613 0-10.18-4.567-10.18-10.18S19.387 14.82 25 14.82 35.18 19.387 35.18 25 30.614 35.18 25 35.18z" style="fill: #1e2a63;"/><path fill="#252e60" d="M29.96 24.498H25.5v-4.445a.5.5 0 1 0-1 0v4.445h-4.513a.5.5 0 1 0 0 1H24.5v4.474a.5.5 0 1 0 1 0v-4.474h4.46a.5.5 0 1 0 0-1z" style="fill: #1e2a63;"/></svg>
